<svg xmlns="http://www.w3.org/2000/svg" viewBox="0 0 160 60" role="img" aria-labelledby="title"><title>Apple Logo Placeholder</title><rect width="160" height="60" fill="#F5F5F7" rx="8"/><path d="M84.5 19.5c-2.1 0-4.6 1.2-6.1 2.8-1.3 1.4-2.5 3.8-2.2 6.1 2.3.2 4.5-1.1 5.9-2.7 1.3-1.4 2.4-3.8 2.4-6.2zm-4.2 8.2c-3.3 0-6.1 2.2-7.6 2.2-1.5 0-3.8-2.1-6.2-2-3.2.1-6.1 1.9-7.7 4.8-3.3 5.6-.9 13.8 2.4 18.4 1.6 2.2 3.6 4.7 6.2 4.6 2.4-.1 3.4-1.6 6.4-1.6s3.8 1.6 6.4 1.6c2.7 0 4.4-2.3 6-4.5 1.7-2.5 2.4-4.8 2.4-4.9-.1-.1-4.6-1.8-4.7-7 0-4.4 3.5-6.5 3.6-6.5-2-.3-4-2.2-4.8-3.2-1.1-1.3-2-3.3-1.7-5.1zm6.8-14.7c-1.4 1.7-2.5 4-2.3 6.4 2.2.2 4.4-1.2 5.7-2.9 1.2-1.6 2.2-3.9 1.9-6.2-2.1-.2-4.3 1.1-5.3 2.7z" fill="#1D1D1F"/></svg>
